<svg width="140" height="30" viewBox="0 0 140 30" fill="none" xmlns="http://www.w3.org/2000/svg">
<g clip-path="url(#clip0_5567_13707)">
<path d="M39.0322 21.9255V9.95283C39.0322 8.72301 40.0294 7.72607 41.2592 7.72607H41.4224V21.9255H39.0322Z" fill="currentColor"/>
<path d="M44.8872 21.9255V7.72607H47.402L53.1594 18.0309V7.72607H53.2186C54.4484 7.72607 55.4456 8.72301 55.4456 9.95283V21.9255H52.9306L47.1734 11.6207V21.9255H44.8872Z" fill="currentColor"/>
<path d="M62.9781 22.2704C61.4954 22.2704 60.3385 21.8175 59.507 20.9115C58.6757 20.0053 58.26 18.8017 58.26 17.3006H60.6502C60.6502 18.1796 60.8443 18.8829 61.2321 19.4103C61.6341 19.9241 62.216 20.1811 62.9781 20.1811C63.7402 20.1811 64.3221 19.9241 64.7239 19.4103C65.1398 18.8829 65.3475 18.1864 65.3475 17.321V9.95283C65.3475 8.72301 66.3446 7.72607 67.5745 7.72607H67.7377V17.321C67.7377 18.8219 67.3151 20.0257 66.4699 20.9317C65.6386 21.8242 64.4745 22.2704 62.9781 22.2704Z" fill="currentColor"/>
<path d="M70.9839 7.72607H79.3809C79.3809 8.87993 78.4453 9.81544 77.2915 9.81544H73.3741V13.8318H79.3809V15.9212H73.3741V19.8362H79.3809V21.9255H70.9839V13.8318V9.81544V7.72607Z" fill="currentColor"/>
<path d="M131.654 7.72607H140.051C140.051 8.87993 139.115 9.81544 137.961 9.81544H134.044V13.8318H140.051V15.9212H134.044V19.8362H140.051V21.9255H131.654V13.8318V9.81544V7.72607Z" fill="currentColor"/>
<path d="M89.1528 22.2701C87.0793 22.2701 85.438 21.5805 84.2283 20.201C83.0189 18.8216 82.4142 17.0298 82.4142 14.8254C82.4142 12.6212 83.0189 10.8294 84.2283 9.44982C85.438 8.07044 87.0793 7.38086 89.1528 7.38086C90.893 7.38086 92.3247 7.86771 93.4479 8.84142C94.571 9.80145 95.2312 11.0525 95.4288 12.5941H94.8944C93.8451 12.5941 93.0084 11.8014 92.3863 10.9566C92.207 10.7131 91.9993 10.4947 91.7631 10.302C91.0968 9.7474 90.2327 9.47022 89.1713 9.47022C87.752 9.47022 86.6413 9.95708 85.8391 10.9308C85.0492 11.8908 84.6542 13.1892 84.6542 14.8254C84.6542 16.4618 85.0492 17.7669 85.8391 18.7406C86.6413 19.7006 87.752 20.1808 89.1713 20.1808C90.2327 20.1808 91.0968 19.9036 91.7631 19.349C91.9993 19.1563 92.207 18.9379 92.3863 18.6944C93.0084 17.8496 93.8451 17.0569 94.8944 17.0569H95.4288C95.2312 18.5984 94.571 19.8563 93.4479 20.83C92.3247 21.79 90.893 22.2701 89.1528 22.2701Z" fill="currentColor"/>
<path d="M101.6 21.9255V9.9168H97.3812C97.3812 8.70694 98.3621 7.72607 99.572 7.72607H108.231V9.9168H103.991V21.9255H101.6Z" fill="currentColor"/>
<path d="M111.264 21.9255V9.95283C111.264 8.72301 112.261 7.72607 113.491 7.72607H113.654V21.9255H111.264Z" fill="currentColor"/>
<path d="M121.509 21.9255L116.687 7.72607H117.659C118.627 7.72607 119.485 8.35206 119.78 9.27454L122.652 18.2541L125.524 9.27454C125.819 8.35206 126.676 7.72607 127.645 7.72607H128.617L123.795 21.9255H121.509Z" fill="currentColor"/>
<path d="M3.5214 5.09988C3.70158 4.87328 3.89252 4.65535 4.08349 4.43743C4.09206 4.42658 4.11142 4.42441 4.12002 4.41355C4.13717 4.39207 4.16512 4.37904 4.18229 4.35755L4.19944 4.33585C4.33256 4.21278 4.47423 4.07886 4.63752 3.9623C5.21532 3.52363 5.81497 3.19045 6.44727 2.97101C8.4753 2.25907 10.7329 2.69796 12.5032 4.36927C14.9752 6.68633 14.7538 10.419 12.7806 12.8999C10.2869 16.5985 6.00175 21.7588 11.9349 26.3812C13.0018 27.2123 13.7932 27.8975 17.1536 28.8686C14.9557 29.2736 12.918 29.1475 10.6498 28.5682C9.04531 27.6627 6.52281 25.7237 5.6646 23.1047C4.36748 19.1333 7.9482 13.1964 9.67867 10.9098C12.0548 7.74534 8.21019 4.31957 5.37982 8.14406C3.90029 10.1373 1.31197 15.7772 2.21144 19.9607C2.73736 22.3331 3.43838 24.0624 6.21787 26.4378C5.70243 26.1337 5.20192 25.7886 4.71637 25.4027C-1.74158 19.3873 -0.992326 10.0858 3.5214 5.09988Z" fill="url(#paint0_linear_5567_13707)"/>
<path d="M25.5051 24.0889C25.325 24.3156 25.134 24.5335 24.9429 24.7514C24.9345 24.7623 24.9149 24.7644 24.9065 24.7751C24.8893 24.7968 24.8613 24.8098 24.8442 24.8313L24.827 24.853C24.694 24.976 24.5522 25.1098 24.389 25.2265C23.811 25.6652 23.2115 25.9984 22.5792 26.2176C20.5511 26.9298 18.2937 26.4909 16.5232 24.8196C14.0514 22.5025 14.2728 18.7698 16.246 16.2887C18.7395 12.5903 23.0246 7.43003 17.0914 2.80765C16.0246 1.97654 15.2332 1.29109 11.8728 0.320096C14.0707 -0.0847973 16.1084 0.0411367 18.3766 0.620476C19.9811 1.52616 22.5037 3.4651 23.3619 6.08408C24.659 10.0555 21.0783 15.9924 19.3477 18.2788C16.9718 21.4435 20.8163 24.869 23.6467 21.0448C25.1261 19.0516 27.7145 13.4116 26.815 9.22811C26.2891 6.85571 25.588 5.12644 22.8086 2.751C23.3239 3.05509 23.8245 3.39999 24.31 3.78613C30.768 9.80157 30.0188 19.103 25.5051 24.0889Z" fill="url(#paint1_linear_5567_13707)"/>
</g>
<defs>
<linearGradient id="paint0_linear_5567_13707" x1="0.00280221" y1="14.5943" x2="29.0236" y2="14.5943" gradientUnits="userSpaceOnUse">
<stop stop-color="#0082FA"/>
<stop offset="1" stop-color="#00F2FE"/>
</linearGradient>
<linearGradient id="paint1_linear_5567_13707" x1="0.00273539" y1="14.5943" x2="29.0236" y2="14.5943" gradientUnits="userSpaceOnUse">
<stop stop-color="#0082FA"/>
<stop offset="1" stop-color="#00F2FE"/>
</linearGradient>
<clipPath id="clip0_5567_13707">
<rect width="140" height="29.0853" fill="currentColor"/>
</clipPath>
</defs>
</svg>
